<svg width="38" height="38" viewBox="0 0 38 38" fill="none" xmlns="http://www.w3.org/2000/svg">
<path d="M16.0315 24.0711C17.7597 24.0711 19.3792 23.5494 20.727 22.6581L25.4877 27.4297C25.8029 27.734 26.205 27.8862 26.6398 27.8862C27.5419 27.8862 28.205 27.1797 28.205 26.2884C28.205 25.8754 28.0637 25.4732 27.7593 25.1689L23.0312 20.4191C24.0095 19.0278 24.5855 17.3431 24.5855 15.5171C24.5855 10.8108 20.7379 6.96309 16.0315 6.96309C11.336 6.96309 7.4775 10.8108 7.4775 15.5171C7.4775 20.2234 11.3252 24.0711 16.0315 24.0711ZM16.0315 21.7886C12.586 21.7886 9.76002 18.9626 9.76002 15.5171C9.76002 12.0716 12.586 9.24561 16.0315 9.24561C19.477 9.24561 22.303 12.0716 22.303 15.5171C22.303 18.9626 19.477 21.7886 16.0315 21.7886Z" fill="#3C3C43" fill-opacity="0.6"/>
</svg>
