<svg width="265" height="44" viewBox="0 0 265 44" fill="none" xmlns="http://www.w3.org/2000/svg">
<path d="M26 1.2C26.4 1.53333 26.7667 2.16667 27.1 3.1C27.4333 4 27.6 4.95 27.6 5.95C27.5667 6.88333 27.3167 7.76667 26.85 8.6C26.4167 9.43333 25.6167 10 24.45 10.3C24.1167 10.4 23.6 10.4833 22.9 10.55C22.2 10.5833 21.4667 10.6167 20.7 10.65C19.9667 10.65 19.3333 10.6667 18.8 10.7C18.3 10.7 18.05 10.7 18.05 10.7C16.0833 10.7 14.4167 10.9667 13.05 11.5C11.6833 12.0333 10.95 12.8667 10.85 14C10.75 15.1 10.8667 15.85 11.2 16.25C11.5667 16.65 12.0333 16.9833 12.6 17.25C13 17.4167 13.6833 17.5 14.65 17.5C15.65 17.4667 16.7167 17.3667 17.85 17.2C18.9833 17.0333 20 16.8333 20.9 16.6C21.8333 16.3667 22.45 16.1333 22.75 15.9C23.1833 16.2667 23.4833 16.9667 23.65 18C23.8167 19 23.8 20.0333 23.6 21.1C23.4333 21.9667 23.1 22.7667 22.6 23.5C22.1 24.2 21.4167 24.6833 20.55 24.95C19.85 25.15 19.3 25.2667 18.9 25.3C18.5333 25.3333 18.2333 25.3667 18 25.4C15.4667 25.4667 13.6 26.1667 12.4 27.5C11.2333 28.8 10.6833 30.4833 10.75 32.55C10.7833 33.3833 10.9667 34.1833 11.3 34.95C11.6667 35.6833 12.05 36.2 12.45 36.5C12.4167 36.8333 12.3333 37.2 12.2 37.6C12.0667 37.9667 11.8333 38.4 11.5 38.9C11.0667 39.5333 10.4833 40.1167 9.75 40.65C9.01667 41.1833 8.06667 41.4667 6.9 41.5C5.7 41.5 4.68333 41.2333 3.85 40.7C3.01667 40.1333 2.38333 39.1833 1.95 37.85C1.55 36.5167 1.35 34.6833 1.35 32.35C1.35 32.2833 1.35 31.75 1.35 30.75C1.35 29.75 1.33333 28.5 1.3 27C1.3 25.5 1.28333 23.9333 1.25 22.3C1.25 20.6667 1.23333 19.1667 1.2 17.8C1.2 16.4 1.2 15.3333 1.2 14.6C1.2 13.5 1.15 12.3167 1.05 11.05C0.95 9.78333 0.833333 8.58333 0.7 7.45C0.566667 6.28333 0.45 5.35 0.35 4.65C0.216667 4.08333 0.116667 3.53333 0.0500001 3C0.0166668 2.43333 1.41561e-07 1.93333 1.41561e-07 1.5C0.233333 1.6 0.866667 1.7 1.9 1.8C2.96667 1.86666 4.2 1.93333 5.6 2C5.73333 2 6.11667 2.01666 6.75 2.05C7.41667 2.08333 8.18333 2.11666 9.05 2.15C9.91667 2.15 10.75 2.16667 11.55 2.2C12.3833 2.23333 13.0167 2.25 13.45 2.25C13.9833 2.25 14.6667 2.25 15.5 2.25C16.3667 2.25 17.25 2.25 18.15 2.25C19.05 2.21667 19.85 2.18333 20.55 2.15C21.5833 2.08333 22.6667 1.98333 23.8 1.85C24.9333 1.68333 25.6667 1.46666 26 1.2ZM35.9918 41.45C34.5585 41.1833 33.5418 40.2167 32.9418 38.55C32.3751 36.8833 32.0918 34.8167 32.0918 32.35C32.0918 32.05 32.0751 31.3 32.0418 30.1C32.0418 28.9 32.0251 27.4167 31.9918 25.65C31.9918 23.85 31.9751 21.9167 31.9418 19.85C31.9418 17.7833 31.9251 15.7167 31.8918 13.65C31.8585 11.5833 31.8251 9.68333 31.7918 7.95C31.7585 6.18333 31.7251 4.73333 31.6918 3.6C31.6585 2.46666 31.6251 1.78333 31.5918 1.55C32.0918 1.45 32.8585 1.43333 33.8918 1.5C34.9585 1.53333 36.0585 1.7 37.1918 2C38.3585 2.26667 39.3751 2.73333 40.2418 3.4C41.1085 4.03333 41.6085 4.91666 41.7418 6.05C41.8085 6.58333 41.8585 7.5 41.8918 8.8C41.9251 10.0667 41.9418 11.5833 41.9418 13.35C41.9751 15.0833 41.9918 16.9333 41.9918 18.9C41.9918 20.8667 41.9918 22.8167 41.9918 24.75C41.9918 26.65 41.9918 28.4167 41.9918 30.05C41.9918 31.65 41.9918 33 41.9918 34.1C42.0251 35.1667 42.0585 35.8167 42.0918 36.05C42.1585 36.75 42.2918 37.2667 42.4918 37.6C42.6918 37.9 42.9085 38.2833 43.1418 38.75C42.3085 39.65 41.2751 40.3833 40.0418 40.95C38.8085 41.5167 37.4585 41.6833 35.9918 41.45ZM80.0191 6.05C80.0858 6.61666 80.1191 7.58333 80.1191 8.95C80.1525 10.2833 80.1691 11.8833 80.1691 13.75C80.1691 15.6167 80.1691 17.5833 80.1691 19.65C80.1691 21.7167 80.1525 23.7667 80.1191 25.8C80.1191 27.8333 80.1025 29.6833 80.0691 31.35C80.0691 33.0167 80.0691 34.3833 80.0691 35.45C80.0691 36.4833 80.0858 37.0667 80.1191 37.2C80.1858 37.4667 80.1358 37.9 79.9691 38.5C79.8025 39.0667 79.5358 39.6167 79.1691 40.15C78.8025 40.65 78.3358 40.95 77.7691 41.05C77.2358 41.1833 76.4858 41.1833 75.5191 41.05C74.5858 40.95 73.6358 40.7 72.6691 40.3C71.7358 39.8667 70.9858 39.25 70.4191 38.45C70.0858 37.9833 69.5691 37.3167 68.8691 36.45C68.2025 35.55 67.4525 34.5833 66.6191 33.55C65.8191 32.4833 65.0191 31.4667 64.2191 30.5C63.4525 29.5 62.8025 28.65 62.2691 27.95C61.7358 27.2167 61.4025 26.7667 61.2691 26.6C60.9691 26.1333 60.4691 25.6667 59.7691 25.2C59.1025 24.7 58.5691 24.5167 58.1691 24.65C57.7691 24.7833 57.4691 25.2 57.2691 25.9C57.0691 26.5667 56.9358 27.2833 56.8691 28.05C56.8025 28.55 56.7691 29.3167 56.7691 30.35C56.7691 31.35 56.7691 32.3833 56.7691 33.45C56.8025 34.5167 56.8025 35.3833 56.7691 36.05C56.7358 37.2167 57.1025 38.3333 57.8691 39.4C57.6025 39.5667 57.0691 39.8333 56.2691 40.2C55.4691 40.5333 54.6191 40.8333 53.7191 41.1C52.8191 41.3667 52.0525 41.4833 51.4191 41.45C50.3525 41.3833 49.4025 40.8333 48.5691 39.8C47.7691 38.7667 47.3525 37.4833 47.3191 35.95C47.3191 35.65 47.3025 34.8167 47.2691 33.45C47.2691 32.05 47.2525 30.3167 47.2191 28.25C47.2191 26.1833 47.2191 23.95 47.2191 21.55C47.2191 19.15 47.2025 16.7833 47.1691 14.45C47.1691 12.0833 47.1525 9.93333 47.1191 8C47.1191 6.03333 47.1191 4.46667 47.1191 3.3C47.1191 2.13333 47.1191 1.55 47.1191 1.55C49.1525 1.48333 50.8691 1.63333 52.2691 2C53.6691 2.36666 54.8358 3.03333 55.7691 4C56.1691 4.36667 56.7525 5.01667 57.5191 5.95C58.2858 6.88333 59.1191 7.95 60.0191 9.15C60.9525 10.3167 61.8525 11.4833 62.7191 12.65C63.6191 13.8167 64.4025 14.85 65.0691 15.75C65.7358 16.6167 66.1691 17.1833 66.3691 17.45C66.9025 18.1167 67.4358 18.65 67.9691 19.05C68.5358 19.4167 69.0025 19.5333 69.3691 19.4C70.1691 19.1333 70.5691 18.0167 70.5691 16.05L70.4691 1.55C70.8358 1.48333 71.4691 1.46667 72.3691 1.5C73.3025 1.53333 74.2858 1.68333 75.3191 1.95C76.4525 2.21666 77.4858 2.66666 78.4191 3.3C79.3525 3.93333 79.8858 4.85 80.0191 6.05ZM116.58 14.35C116.746 15.35 116.863 16.4333 116.93 17.6C117.03 18.7667 117.03 20.1833 116.93 21.85C116.83 23.4833 116.596 25.5 116.23 27.9C115.73 31.1333 114.413 33.85 112.28 36.05C110.146 38.2167 107.463 39.6333 104.23 40.3C103.33 40.5 102.28 40.65 101.08 40.75C99.8797 40.8167 98.6797 40.8833 97.4797 40.95C96.313 40.9833 95.263 41.0333 94.3297 41.1C93.4964 41.2667 92.4964 41.3833 91.3297 41.45C90.163 41.5167 89.063 41.5 88.0297 41.4C86.9964 41.3 86.2464 41.1167 85.7797 40.85C86.0464 40.3833 86.263 39.6833 86.4297 38.75C86.5964 37.7833 86.7297 36.7333 86.8297 35.6C86.9297 34.4667 86.963 33.3833 86.9297 32.35L86.7797 15.4C86.7797 14.0333 86.763 12.7833 86.7297 11.65C86.7297 10.5167 86.6964 9.63333 86.6297 9C86.563 8.3 86.2964 7.68333 85.8297 7.15C85.3964 6.61667 85.0797 6.08333 84.8797 5.55C84.3464 4.08333 84.113 2.65 84.1797 1.25C84.3464 1.28333 84.713 1.33333 85.2797 1.4C85.8797 1.43333 86.563 1.48333 87.3297 1.55C88.163 1.58333 89.463 1.63333 91.2297 1.7C93.0297 1.76667 94.863 1.83333 96.7297 1.9C96.7297 1.9 96.9964 1.91666 97.5297 1.95C98.0964 1.95 98.7964 1.98333 99.6297 2.05C100.463 2.11667 101.33 2.21667 102.23 2.35C103.13 2.45 103.913 2.58333 104.58 2.75C106.746 3.31667 108.563 4.1 110.03 5.1C111.53 6.06667 112.73 7.11667 113.63 8.25C114.563 9.38333 115.263 10.5 115.73 11.6C116.196 12.6667 116.48 13.5833 116.58 14.35ZM99.1297 31.5C100.496 31.1667 101.78 30.5167 102.98 29.55C104.213 28.55 105.18 27.2167 105.88 25.55C106.613 23.85 106.88 21.7833 106.68 19.35C106.446 16.1833 105.613 13.9833 104.18 12.75C102.78 11.5167 100.946 10.8833 98.6797 10.85C98.0464 10.8167 97.5464 11.2333 97.1797 12.1C96.813 12.9667 96.563 14.3667 96.4297 16.3C96.363 17.5667 96.313 18.5167 96.2797 19.15C96.2464 19.75 96.2297 20.25 96.2297 20.65C96.263 21.05 96.263 21.5667 96.2297 22.2C96.2297 22.2 96.2297 22.5 96.2297 23.1C96.263 23.7 96.313 24.45 96.3797 25.35C96.4464 26.2167 96.5297 27.1167 96.6297 28.05C96.7297 28.95 96.8464 29.7167 96.9797 30.35C97.1464 31.05 97.463 31.45 97.9297 31.55C98.3964 31.6167 98.7964 31.6 99.1297 31.5ZM164.714 1.25C167.181 1.61667 169.131 2.28333 170.564 3.25C172.031 4.18333 173.114 5.26666 173.814 6.5C174.514 7.73333 174.964 8.95 175.164 10.15C175.364 11.3167 175.464 12.3167 175.464 13.15C175.464 14.2167 175.281 15.45 174.914 16.85C174.548 18.2167 173.931 19.5667 173.064 20.9C172.231 22.2 171.114 23.3333 169.714 24.3C168.314 25.2333 166.564 25.8 164.464 26C164.098 26.0333 163.631 26.0667 163.064 26.1C162.498 26.1333 161.981 26.1667 161.514 26.2C161.081 26.2 160.814 26.2 160.714 26.2C159.448 26.2667 158.281 26.6333 157.214 27.3C156.181 27.9667 155.348 28.8333 154.714 29.9C154.114 30.9333 153.798 32.1 153.764 33.4V35.25C153.764 36.1167 153.881 36.9167 154.114 37.65C154.348 38.35 154.531 38.8333 154.664 39.1C153.864 39.8333 153.164 40.35 152.564 40.65C151.964 40.95 151.214 41.1667 150.314 41.3C149.581 41.4 148.764 41.3333 147.864 41.1C146.998 40.8667 146.214 40.4333 145.514 39.8C144.814 39.1333 144.364 38.2167 144.164 37.05C144.131 36.85 144.114 36.2167 144.114 35.15C144.114 34.05 144.114 32.7 144.114 31.1C144.148 29.4667 144.164 27.6833 144.164 25.75C144.198 23.8167 144.214 21.8833 144.214 19.95C144.214 18.0167 144.214 16.2167 144.214 14.55C144.181 12.75 144.098 11.2333 143.964 10C143.864 8.76667 143.614 7.98333 143.214 7.65C142.514 7.05 141.964 6.11666 141.564 4.85C141.198 3.58333 141.031 2.38333 141.064 1.25C141.198 1.28333 141.564 1.33333 142.164 1.4C142.764 1.43333 143.398 1.48333 144.064 1.55C144.398 1.55 144.948 1.55 145.714 1.55C146.481 1.51667 147.314 1.46667 148.214 1.4C149.148 1.33333 150.048 1.28333 150.914 1.25C151.781 1.18333 152.481 1.13333 153.014 1.1C153.748 1.03333 154.714 0.966666 155.914 0.899998C157.148 0.833332 158.531 0.816665 160.064 0.849998C161.598 0.883331 163.148 1.01666 164.714 1.25ZM158.764 16.85C159.231 16.8833 159.814 16.85 160.514 16.75C161.248 16.6167 161.981 16.4167 162.714 16.15C163.481 15.8833 164.114 15.5167 164.614 15.05C165.114 14.55 165.364 13.95 165.364 13.25C165.364 12.2833 164.998 11.5333 164.264 11C163.564 10.4667 162.698 10.1 161.664 9.9C160.664 9.7 159.698 9.61667 158.764 9.65C157.398 9.68333 156.231 10.0667 155.264 10.8C154.298 11.5 153.814 12.3333 153.814 13.3C153.848 13.9333 154.098 14.5167 154.564 15.05C155.064 15.55 155.681 15.9667 156.414 16.3C157.181 16.6333 157.964 16.8167 158.764 16.85ZM201.093 4.2C201.86 3.73333 202.677 3.43333 203.543 3.3C204.443 3.13333 205.243 3.13333 205.943 3.3C206.677 3.46667 207.193 3.76667 207.493 4.2C207.827 4.6 207.81 5.11666 207.443 5.75C207.11 6.35 206.577 7.3 205.843 8.6C205.11 9.9 204.26 11.45 203.293 13.25C202.327 15.0167 201.31 16.8833 200.243 18.85C199.177 20.8167 198.127 22.7833 197.093 24.75C196.06 26.6833 195.11 28.4833 194.243 30.15C193.377 31.7833 192.643 33.1667 192.043 34.3C191.477 35.4 191.127 36.1 190.993 36.4C190.527 37.5 190.243 38.15 190.143 38.35C190.077 38.5167 190.043 38.6 190.043 38.6C190.077 39.3667 189.843 40.2 189.343 41.1C188.877 42.0333 188.293 42.7333 187.593 43.2C187.593 43.2 187.493 43.1833 187.293 43.15C187.127 43.15 186.51 43.1333 185.443 43.1C184.777 43.0667 184.077 42.8167 183.343 42.35C182.643 41.9167 182.16 41.2667 181.893 40.4C181.627 39.5 181.81 38.4167 182.443 37.15C182.743 36.4833 183.26 35.4333 183.993 34C184.727 32.5667 185.577 30.9 186.543 29C187.543 27.0667 188.61 25.0333 189.743 22.9C190.877 20.7333 192.01 18.6167 193.143 16.55C194.31 14.45 195.41 12.5167 196.443 10.75C197.477 8.98333 198.393 7.51666 199.193 6.35C200.027 5.18333 200.66 4.46666 201.093 4.2ZM255.56 0.999999C257.86 1.3 259.677 2.03333 261.01 3.2C262.377 4.36667 263.277 5.71667 263.71 7.25C264.143 8.78333 264.11 10.2833 263.61 11.75C263.41 12.3167 263.11 13.25 262.71 14.55C262.31 15.8167 261.843 17.3 261.31 19C260.81 20.7 260.277 22.45 259.71 24.25C259.177 26.05 258.66 27.75 258.16 29.35C257.66 30.95 257.227 32.3 256.86 33.4C256.527 34.5 256.293 35.2 256.16 35.5C255.56 36.8667 254.96 37.9333 254.36 38.7C253.793 39.4667 253.127 40.0333 252.36 40.4C251.627 40.7333 250.693 40.95 249.56 41.05C248.76 41.1167 248.01 40.95 247.31 40.55C246.643 40.1167 246.06 39.6 245.56 39C245.093 38.4 244.76 37.9 244.56 37.5C244.76 37.3 244.81 36.9 244.71 36.3C244.643 35.7 244.493 35.0167 244.26 34.25C244.027 33.45 243.777 32.7 243.51 32C243.243 31.2667 243.027 30.7 242.86 30.3C242.527 29.4667 242.143 28.9333 241.71 28.7C241.31 28.4333 240.927 28.3167 240.56 28.35C240.16 28.3833 239.743 28.5833 239.31 28.95C238.91 29.3167 238.627 29.8333 238.46 30.5C238.36 30.9333 238.193 31.55 237.96 32.35C237.727 33.1167 237.51 33.85 237.31 34.55C237.11 35.2167 236.993 35.6333 236.96 35.8C236.56 37.2 236.193 38.2333 235.86 38.9C235.527 39.5333 235.177 39.9667 234.81 40.2C234.477 40.4 234.043 40.5833 233.51 40.75C232.743 40.8833 231.927 40.8667 231.06 40.7C230.227 40.5333 229.41 40.2667 228.61 39.9C227.843 39.5 227.177 39.0833 226.61 38.65C226.077 38.2167 225.727 37.8333 225.56 37.5C225.993 37.1333 226.143 36.6667 226.01 36.1C225.91 35.5333 225.793 35.0833 225.66 34.75C225.327 33.8833 224.877 32.65 224.31 31.05C223.743 29.45 223.093 27.65 222.36 25.65C221.66 23.6167 220.927 21.5167 220.16 19.35C219.427 17.15 218.693 15.0333 217.96 13C217.26 10.9333 216.61 9.08333 216.01 7.45C215.443 5.81667 214.993 4.51667 214.66 3.55C214.327 2.55 214.16 2.05 214.16 2.05C214.66 1.98333 215.443 1.91667 216.51 1.85C217.577 1.75 218.727 1.75 219.96 1.85C221.193 1.91667 222.343 2.16667 223.41 2.6C224.51 3.03333 225.327 3.73333 225.86 4.7C225.993 4.9 226.193 5.46667 226.46 6.4C226.727 7.3 227.027 8.36667 227.36 9.6C227.693 10.8 228.01 12.0167 228.31 13.25C228.643 14.45 228.91 15.4833 229.11 16.35C229.343 17.2167 229.477 17.7333 229.51 17.9C229.743 18.7333 230.027 19.3667 230.36 19.8C230.727 20.2 231.077 20.4333 231.41 20.5C232.143 20.6667 232.793 20.0667 233.36 18.7C233.427 18.5667 233.543 18.1333 233.71 17.4C233.91 16.6333 234.143 15.6833 234.41 14.55C234.677 13.4167 234.943 12.2333 235.21 11C235.51 9.73333 235.777 8.53333 236.01 7.4C236.243 6.26666 236.427 5.31667 236.56 4.55C236.727 3.75 236.81 3.28333 236.81 3.15C237.31 2.75 238.01 2.53333 238.91 2.5C239.81 2.46667 240.677 2.63333 241.51 3C242.377 3.33333 242.96 3.91666 243.26 4.75C243.36 5.05 243.56 5.71666 243.86 6.75C244.193 7.78333 244.577 9.01667 245.01 10.45C245.477 11.85 245.943 13.3 246.41 14.8C246.91 16.2667 247.393 17.6 247.86 18.8C248.493 20.4667 249.227 21.3333 250.06 21.4C250.96 21.4667 251.71 20.6 252.31 18.8C252.61 17.8667 252.91 16.8167 253.21 15.65C253.51 14.45 253.777 13.2333 254.01 12C254.277 10.7667 254.51 9.65 254.71 8.65C254.943 7.61667 255.143 6.81666 255.31 6.25C255.61 5.08333 255.76 4.08333 255.76 3.25C255.793 2.41666 255.727 1.66667 255.56 0.999999Z" fill="#05796B"/>
</svg>
