<svg width="218" height="42" viewBox="0 0 218 42" fill="none" xmlns="http://www.w3.org/2000/svg">
<path d="M17 0.949997C18.9667 0.949997 20.85 1.3 22.65 2C24.4833 2.66666 26.0167 3.56666 27.25 4.7C28.5167 5.83333 29.2667 7.05 29.5 8.35C29.6667 9.21666 29.55 10.1833 29.15 11.25C28.75 12.2833 28.1167 13.2 27.25 14C26.3833 14.7667 25.3333 15.1833 24.1 15.25C23.6667 15.25 23.1167 15.2 22.45 15.1C21.7833 15 21.1333 14.8 20.5 14.5C19.9 14.2 19.4167 13.7667 19.05 13.2C19.55 12.9333 19.8833 12.65 20.05 12.35C20.2167 12.05 20.2667 11.75 20.2 11.45C20.0667 10.7833 19.6667 10.2333 19 9.8C18.3667 9.36667 17.5833 9.1 16.65 9C16.1167 8.93333 15.5 8.95 14.8 9.05C14.1 9.11666 13.45 9.35 12.85 9.75C12.2833 10.1167 11.8833 10.7333 11.65 11.6C11.5167 12.1 11.5333 12.65 11.7 13.25C11.9 13.8167 12.3667 14.3667 13.1 14.9C13.8333 15.4 14.95 15.8333 16.45 16.2C18.75 16.7333 20.8833 17.3167 22.85 17.95C24.85 18.5833 26.6 19.3667 28.1 20.3C29.6 21.2333 30.75 22.4 31.55 23.8C32.3833 25.1667 32.7667 26.8833 32.7 28.95C32.6667 30.3167 32.3 31.75 31.6 33.25C30.9 34.75 29.8833 36.15 28.55 37.45C27.2167 38.7167 25.5833 39.75 23.65 40.55C21.7167 41.35 19.5167 41.75 17.05 41.75C15.4833 41.75 13.8667 41.6167 12.2 41.35C10.5333 41.0833 8.95 40.6667 7.45 40.1C5.98333 39.5333 4.68333 38.7833 3.55 37.85C2.55 36.9833 1.83333 35.9 1.4 34.6C1 33.3 0.916667 32 1.15 30.7C1.38333 29.3667 1.96667 28.2333 2.9 27.3C3.86667 26.3667 5.2 25.85 6.9 25.75C6.56667 26.75 6.75 27.7333 7.45 28.7C8.18333 29.6333 9.26667 30.4333 10.7 31.1C12.1333 31.7333 13.7 32.1167 15.4 32.25C17.1667 32.3833 18.7 32.3167 20 32.05C21.3333 31.7833 22.0667 31.2333 22.2 30.4C22.3667 29.4 22.1667 28.6 21.6 28C21.0333 27.4 20.25 26.95 19.25 26.65C18.25 26.3167 17.1667 26.05 16 25.85C14.8333 25.6167 13.75 25.3833 12.75 25.15C11.4167 24.7833 10.0667 24.3167 8.7 23.75C7.36667 23.15 6.13333 22.4 5 21.5C3.9 20.6 3 19.5 2.3 18.2C1.6 16.9 1.23333 15.3833 1.2 13.65C1.16667 11.6167 1.58333 9.81666 2.45 8.25C3.31667 6.65 4.5 5.31667 6 4.25C7.5 3.15 9.2 2.33333 11.1 1.8C13.0333 1.23333 15 0.949997 17 0.949997ZM41.0934 41.45C39.66 41.1833 38.6434 40.2167 38.0434 38.55C37.4767 36.8833 37.1934 34.8167 37.1934 32.35C37.1934 32.05 37.1767 31.3 37.1434 30.1C37.1434 28.9 37.1267 27.4167 37.0934 25.65C37.0934 23.85 37.0767 21.9167 37.0434 19.85C37.0434 17.7833 37.0267 15.7167 36.9934 13.65C36.96 11.5833 36.9267 9.68333 36.8934 7.95C36.86 6.18333 36.8267 4.73333 36.7934 3.6C36.76 2.46666 36.7267 1.78333 36.6934 1.55C37.1934 1.45 37.96 1.43333 38.9934 1.5C40.06 1.53333 41.16 1.7 42.2934 2C43.46 2.26667 44.4767 2.73333 45.3434 3.4C46.21 4.03333 46.71 4.91666 46.8434 6.05C46.91 6.58333 46.96 7.5 46.9934 8.8C47.0267 10.0667 47.0434 11.5833 47.0434 13.35C47.0767 15.0833 47.0934 16.9333 47.0934 18.9C47.0934 20.8667 47.0934 22.8167 47.0934 24.75C47.0934 26.65 47.0934 28.4167 47.0934 30.05C47.0934 31.65 47.0934 33 47.0934 34.1C47.1267 35.1667 47.16 35.8167 47.1934 36.05C47.26 36.75 47.3934 37.2667 47.5934 37.6C47.7934 37.9 48.01 38.2833 48.2434 38.75C47.41 39.65 46.3767 40.3833 45.1434 40.95C43.91 41.5167 42.56 41.6833 41.0934 41.45ZM86.9707 18.25C87.3374 18.6167 87.604 19.1667 87.7707 19.9C87.9707 20.6 88.004 21.3833 87.8707 22.25C87.7707 22.9833 87.5207 23.7333 87.1207 24.5C86.7207 25.2667 86.1207 25.9333 85.3207 26.5C84.6874 26.9333 84.2207 27.65 83.9207 28.65C83.6207 29.6167 83.4207 30.6 83.3207 31.6C83.1874 32.7333 82.8874 33.9 82.4207 35.1C81.9874 36.3 81.304 37.3667 80.3707 38.3C79.6374 39.1667 78.5707 39.9667 77.1707 40.7C75.804 41.4 73.9374 41.7333 71.5707 41.7C70.2374 41.6667 68.6707 41.4333 66.8707 41C65.104 40.5667 63.304 39.8667 61.4707 38.9C59.6707 37.9 58.0207 36.5667 56.5207 34.9C55.0207 33.2333 53.8707 31.1667 53.0707 28.7C52.2707 26.2333 52.0374 23.3 52.3707 19.9C52.6707 16.6667 53.4707 13.8667 54.7707 11.5C56.104 9.13333 57.754 7.18333 59.7207 5.65C61.6874 4.11667 63.804 2.96667 66.0707 2.2C68.3374 1.4 70.5874 0.983332 72.8207 0.949997C74.7874 0.883331 76.504 1.18333 77.9707 1.85C79.4374 2.51667 80.604 3.38333 81.4707 4.45C82.3707 5.48333 82.9707 6.6 83.2707 7.8C83.604 8.96667 83.604 10.0333 83.2707 11C83.004 11.8333 82.6207 12.5167 82.1207 13.05C81.654 13.5833 81.1374 13.95 80.5707 14.15C79.8707 14.4167 79.154 14.4667 78.4207 14.3C77.6874 14.1 77.054 13.6833 76.5207 13.05C77.0874 12.6167 77.254 12.15 77.0207 11.65C76.8207 11.1167 76.304 10.6833 75.4707 10.35C74.6374 9.98333 73.5707 9.85 72.2707 9.95C71.2707 10.0167 70.204 10.3 69.0707 10.8C67.9707 11.3 66.9207 12 65.9207 12.9C64.954 13.8 64.154 14.9 63.5207 16.2C62.8874 17.5 62.5374 18.9833 62.4707 20.65C62.3707 22.95 62.5707 24.8167 63.0707 26.25C63.604 27.6833 64.304 28.7667 65.1707 29.5C66.0374 30.2333 66.9707 30.7333 67.9707 31C68.9707 31.2667 69.9374 31.4 70.8707 31.4C71.6707 31.4 72.3207 31.15 72.8207 30.65C73.354 30.15 73.5707 29.55 73.4707 28.85C73.3707 28.15 72.7707 27.4833 71.6707 26.85C70.6374 26.2833 69.9707 25.7333 69.6707 25.2C69.3707 24.6667 69.1207 24.1333 68.9207 23.6C68.5874 22.7333 68.304 21.8 68.0707 20.8C67.8374 19.8 67.7374 18.95 67.7707 18.25C68.0374 18.35 68.7207 18.5167 69.8207 18.75C70.9207 18.95 72.1874 19.1333 73.6207 19.3C75.0874 19.4667 76.4707 19.5667 77.7707 19.6C79.1374 19.6 80.454 19.5667 81.7207 19.5C82.9874 19.4 84.0874 19.25 85.0207 19.05C85.9874 18.85 86.6374 18.5833 86.9707 18.25ZM124.818 6.05C124.885 6.61666 124.918 7.58333 124.918 8.95C124.951 10.2833 124.968 11.8833 124.968 13.75C124.968 15.6167 124.968 17.5833 124.968 19.65C124.968 21.7167 124.951 23.7667 124.918 25.8C124.918 27.8333 124.901 29.6833 124.868 31.35C124.868 33.0167 124.868 34.3833 124.868 35.45C124.868 36.4833 124.885 37.0667 124.918 37.2C124.985 37.4667 124.935 37.9 124.768 38.5C124.601 39.0667 124.335 39.6167 123.968 40.15C123.601 40.65 123.135 40.95 122.568 41.05C122.035 41.1833 121.285 41.1833 120.318 41.05C119.385 40.95 118.435 40.7 117.468 40.3C116.535 39.8667 115.785 39.25 115.218 38.45C114.885 37.9833 114.368 37.3167 113.668 36.45C113.001 35.55 112.251 34.5833 111.418 33.55C110.618 32.4833 109.818 31.4667 109.018 30.5C108.251 29.5 107.601 28.65 107.068 27.95C106.535 27.2167 106.201 26.7667 106.068 26.6C105.768 26.1333 105.268 25.6667 104.568 25.2C103.901 24.7 103.368 24.5167 102.968 24.65C102.568 24.7833 102.268 25.2 102.068 25.9C101.868 26.5667 101.735 27.2833 101.668 28.05C101.601 28.55 101.568 29.3167 101.568 30.35C101.568 31.35 101.568 32.3833 101.568 33.45C101.601 34.5167 101.601 35.3833 101.568 36.05C101.535 37.2167 101.901 38.3333 102.668 39.4C102.401 39.5667 101.868 39.8333 101.068 40.2C100.268 40.5333 99.418 40.8333 98.518 41.1C97.618 41.3667 96.8513 41.4833 96.218 41.45C95.1513 41.3833 94.2013 40.8333 93.368 39.8C92.568 38.7667 92.1513 37.4833 92.118 35.95C92.118 35.65 92.1013 34.8167 92.068 33.45C92.068 32.05 92.0513 30.3167 92.018 28.25C92.018 26.1833 92.018 23.95 92.018 21.55C92.018 19.15 92.0013 16.7833 91.968 14.45C91.968 12.0833 91.9513 9.93333 91.918 8C91.918 6.03333 91.918 4.46667 91.918 3.3C91.918 2.13333 91.918 1.55 91.918 1.55C93.9513 1.48333 95.668 1.63333 97.068 2C98.468 2.36666 99.6346 3.03333 100.568 4C100.968 4.36667 101.551 5.01667 102.318 5.95C103.085 6.88333 103.918 7.95 104.818 9.15C105.751 10.3167 106.651 11.4833 107.518 12.65C108.418 13.8167 109.201 14.85 109.868 15.75C110.535 16.6167 110.968 17.1833 111.168 17.45C111.701 18.1167 112.235 18.65 112.768 19.05C113.335 19.4167 113.801 19.5333 114.168 19.4C114.968 19.1333 115.368 18.0167 115.368 16.05L115.268 1.55C115.635 1.48333 116.268 1.46667 117.168 1.5C118.101 1.53333 119.085 1.68333 120.118 1.95C121.251 2.21666 122.285 2.66666 123.218 3.3C124.151 3.93333 124.685 4.85 124.818 6.05ZM178.248 6.05C178.315 6.81666 178.398 8.06666 178.498 9.8C178.631 11.5 178.731 13.4667 178.798 15.7C178.865 17.9333 178.881 20.2333 178.848 22.6C178.848 24.9333 178.765 27.15 178.598 29.25C178.465 31.35 178.215 33.1 177.848 34.5C177.248 36.8 175.581 38.5667 172.848 39.8C170.115 41.0333 166.681 41.65 162.548 41.65C159.781 41.65 157.431 41.1333 155.498 40.1C153.565 39.0667 152.065 37.65 150.998 35.85C149.965 34.0167 149.381 31.9167 149.248 29.55C149.181 28.3833 149.131 26.9 149.098 25.1C149.065 23.2667 149.031 21.3 148.998 19.2C148.998 17.0667 148.998 14.9667 148.998 12.9C148.998 10.8333 148.998 8.95 148.998 7.25C149.031 5.51666 149.048 4.13333 149.048 3.1C149.048 2.06667 149.048 1.55 149.048 1.55C149.415 1.48333 150.048 1.46667 150.948 1.5C151.881 1.53333 152.848 1.68333 153.848 1.95C154.981 2.21666 156.015 2.66666 156.948 3.3C157.915 3.93333 158.465 4.85 158.598 6.05C158.698 7.05 158.698 8.55 158.598 10.55C158.531 12.5167 158.465 14.7833 158.398 17.35C158.365 19.8833 158.431 22.5167 158.598 25.25C158.631 25.8167 158.648 26.4667 158.648 27.2C158.648 27.9333 158.748 28.65 158.948 29.35C159.181 30.05 159.631 30.6333 160.298 31.1C160.998 31.5667 162.065 31.8 163.498 31.8C164.931 31.8 166.015 31.6 166.748 31.2C167.515 30.8 168.065 30.25 168.398 29.55C168.731 28.85 168.931 28.0333 168.998 27.1C169.098 26.1667 169.181 25.1667 169.248 24.1C169.315 23.4 169.331 22.3667 169.298 21C169.298 19.6333 169.281 18.1 169.248 16.4C169.215 14.7 169.165 12.9833 169.098 11.25C169.031 9.51667 168.965 7.91667 168.898 6.45C168.831 4.98333 168.781 3.8 168.748 2.9C168.715 2 168.698 1.55 168.698 1.55C169.065 1.48333 169.698 1.46667 170.598 1.5C171.531 1.53333 172.515 1.68333 173.548 1.95C174.681 2.21666 175.715 2.68333 176.648 3.35C177.581 3.98333 178.115 4.88333 178.248 6.05ZM206.486 1.25C208.953 1.61667 210.903 2.28333 212.336 3.25C213.803 4.18333 214.886 5.26666 215.586 6.5C216.286 7.73333 216.736 8.95 216.936 10.15C217.136 11.3167 217.236 12.3167 217.236 13.15C217.236 14.2167 217.053 15.45 216.686 16.85C216.319 18.2167 215.703 19.5667 214.836 20.9C214.003 22.2 212.886 23.3333 211.486 24.3C210.086 25.2333 208.336 25.8 206.236 26C205.869 26.0333 205.403 26.0667 204.836 26.1C204.269 26.1333 203.753 26.1667 203.286 26.2C202.853 26.2 202.586 26.2 202.486 26.2C201.219 26.2667 200.053 26.6333 198.986 27.3C197.953 27.9667 197.119 28.8333 196.486 29.9C195.886 30.9333 195.569 32.1 195.536 33.4V35.25C195.536 36.1167 195.653 36.9167 195.886 37.65C196.119 38.35 196.303 38.8333 196.436 39.1C195.636 39.8333 194.936 40.35 194.336 40.65C193.736 40.95 192.986 41.1667 192.086 41.3C191.353 41.4 190.536 41.3333 189.636 41.1C188.769 40.8667 187.986 40.4333 187.286 39.8C186.586 39.1333 186.136 38.2167 185.936 37.05C185.903 36.85 185.886 36.2167 185.886 35.15C185.886 34.05 185.886 32.7 185.886 31.1C185.919 29.4667 185.936 27.6833 185.936 25.75C185.969 23.8167 185.986 21.8833 185.986 19.95C185.986 18.0167 185.986 16.2167 185.986 14.55C185.953 12.75 185.869 11.2333 185.736 10C185.636 8.76667 185.386 7.98333 184.986 7.65C184.286 7.05 183.736 6.11666 183.336 4.85C182.969 3.58333 182.803 2.38333 182.836 1.25C182.969 1.28333 183.336 1.33333 183.936 1.4C184.536 1.43333 185.169 1.48333 185.836 1.55C186.169 1.55 186.719 1.55 187.486 1.55C188.253 1.51667 189.086 1.46667 189.986 1.4C190.919 1.33333 191.819 1.28333 192.686 1.25C193.553 1.18333 194.253 1.13333 194.786 1.1C195.519 1.03333 196.486 0.966666 197.686 0.899998C198.919 0.833332 200.303 0.816665 201.836 0.849998C203.369 0.883331 204.919 1.01666 206.486 1.25ZM200.536 16.85C201.003 16.8833 201.586 16.85 202.286 16.75C203.019 16.6167 203.753 16.4167 204.486 16.15C205.253 15.8833 205.886 15.5167 206.386 15.05C206.886 14.55 207.136 13.95 207.136 13.25C207.136 12.2833 206.769 11.5333 206.036 11C205.336 10.4667 204.469 10.1 203.436 9.9C202.436 9.7 201.469 9.61667 200.536 9.65C199.169 9.68333 198.003 10.0667 197.036 10.8C196.069 11.5 195.586 12.3333 195.586 13.3C195.619 13.9333 195.869 14.5167 196.336 15.05C196.836 15.55 197.453 15.9667 198.186 16.3C198.953 16.6333 199.736 16.8167 200.536 16.85Z" fill="#05796B"/>
</svg>
