<svg width="341" height="48" viewBox="0 0 341 48" fill="none" xmlns="http://www.w3.org/2000/svg">
<path d="M26 0.199997C26.4 0.533332 26.7667 1.16667 27.1 2.1C27.4333 3 27.6 3.95 27.6 4.95C27.5667 5.88333 27.3167 6.76667 26.85 7.6C26.4167 8.43333 25.6167 9 24.45 9.3C24.1167 9.4 23.6 9.48333 22.9 9.55C22.2 9.58333 21.4667 9.61666 20.7 9.65C19.9667 9.65 19.3333 9.66666 18.8 9.7C18.3 9.7 18.05 9.7 18.05 9.7C16.0833 9.7 14.4167 9.96667 13.05 10.5C11.6833 11.0333 10.95 11.8667 10.85 13C10.75 14.1 10.8667 14.85 11.2 15.25C11.5667 15.65 12.0333 15.9833 12.6 16.25C13 16.4167 13.6833 16.5 14.65 16.5C15.65 16.4667 16.7167 16.3667 17.85 16.2C18.9833 16.0333 20 15.8333 20.9 15.6C21.8333 15.3667 22.45 15.1333 22.75 14.9C23.1833 15.2667 23.4833 15.9667 23.65 17C23.8167 18 23.8 19.0333 23.6 20.1C23.4333 20.9667 23.1 21.7667 22.6 22.5C22.1 23.2 21.4167 23.6833 20.55 23.95C19.85 24.15 19.3 24.2667 18.9 24.3C18.5333 24.3333 18.2333 24.3667 18 24.4C15.4667 24.4667 13.6 25.1667 12.4 26.5C11.2333 27.8 10.6833 29.4833 10.75 31.55C10.7833 32.3833 10.9667 33.1833 11.3 33.95C11.6667 34.6833 12.05 35.2 12.45 35.5C12.4167 35.8333 12.3333 36.2 12.2 36.6C12.0667 36.9667 11.8333 37.4 11.5 37.9C11.0667 38.5333 10.4833 39.1167 9.75 39.65C9.01667 40.1833 8.06667 40.4667 6.9 40.5C5.7 40.5 4.68333 40.2333 3.85 39.7C3.01667 39.1333 2.38333 38.1833 1.95 36.85C1.55 35.5167 1.35 33.6833 1.35 31.35C1.35 31.2833 1.35 30.75 1.35 29.75C1.35 28.75 1.33333 27.5 1.3 26C1.3 24.5 1.28333 22.9333 1.25 21.3C1.25 19.6667 1.23333 18.1667 1.2 16.8C1.2 15.4 1.2 14.3333 1.2 13.6C1.2 12.5 1.15 11.3167 1.05 10.05C0.95 8.78333 0.833333 7.58333 0.7 6.45C0.566667 5.28333 0.45 4.35 0.35 3.65C0.216667 3.08333 0.116667 2.53333 0.0500001 2C0.0166668 1.43333 1.41561e-07 0.933333 1.41561e-07 0.499999C0.233333 0.599998 0.866667 0.699997 1.9 0.799998C2.96667 0.866664 4.2 0.933331 5.6 0.999998C5.73333 0.999998 6.11667 1.01666 6.75 1.05C7.41667 1.08333 8.18333 1.11666 9.05 1.15C9.91667 1.15 10.75 1.16667 11.55 1.2C12.3833 1.23333 13.0167 1.25 13.45 1.25C13.9833 1.25 14.6667 1.25 15.5 1.25C16.3667 1.25 17.25 1.25 18.15 1.25C19.05 1.21667 19.85 1.18333 20.55 1.15C21.5833 1.08333 22.6667 0.983331 23.8 0.849997C24.9333 0.683331 25.6667 0.466664 26 0.199997ZM45.6398 11.05C46.3065 10.8833 46.9232 11.05 47.4898 11.55C48.0565 12.05 48.5565 12.7333 48.9898 13.6C49.4565 14.4333 49.8398 15.3 50.1398 16.2C50.4398 17.0667 50.6732 17.8 50.8398 18.4C51.0065 19 51.0898 19.3 51.0898 19.3C51.0898 19.3 50.6898 19.3833 49.8898 19.55C49.1232 19.6833 48.1565 19.9667 46.9898 20.4C45.8565 20.8 44.7232 21.4167 43.5898 22.25C42.9232 22.75 42.2898 23.35 41.6898 24.05C41.0898 24.75 40.5732 25.65 40.1398 26.75C39.7065 27.8167 39.3898 29.2333 39.1898 31C39.0898 31.9 39.0732 32.8333 39.1398 33.8C39.2065 34.7667 39.2398 35.5833 39.2398 36.25C39.2732 36.85 39.3565 37.2833 39.4898 37.55C39.6565 37.7833 39.7898 37.9833 39.8898 38.15C39.4565 38.55 38.6565 39 37.4898 39.5C36.3565 39.9667 35.1065 40.2 33.7398 40.2C32.4065 40.2 31.4232 39.7667 30.7898 38.9C30.1565 38.0333 29.8398 36.8333 29.8398 35.3C29.8398 34.9333 29.8232 34.1333 29.7898 32.9C29.7898 31.6333 29.7732 30.1167 29.7398 28.35C29.7398 26.5833 29.7232 24.75 29.6898 22.85C29.6898 20.95 29.6732 19.1833 29.6398 17.55C29.6398 15.8833 29.6232 14.5333 29.5898 13.5C29.5898 12.4667 29.5898 11.95 29.5898 11.95C29.9232 11.8833 30.4898 11.8333 31.2898 11.8C32.1232 11.7667 33.0232 11.8 33.9898 11.9C34.9565 12 35.8565 12.2333 36.6898 12.6C37.0898 12.7667 37.6232 12.9333 38.2898 13.1C38.9898 13.2333 39.6565 13.3 40.2898 13.3C40.9565 13.3 41.4398 13.2 41.7398 13C42.3732 12.5333 43.0065 12.1333 43.6398 11.8C44.3065 11.4667 44.9732 11.2167 45.6398 11.05ZM77.7879 27.45C78.6212 28.0167 79.1546 28.8333 79.3879 29.9C79.6546 30.9333 79.6212 32.0667 79.2879 33.3C78.9879 34.5333 78.3712 35.7167 77.4379 36.85C76.5046 37.95 75.2379 38.8667 73.6379 39.6C72.0712 40.3333 70.1712 40.7167 67.9379 40.75C66.0712 40.7833 64.2379 40.55 62.4379 40.05C60.6712 39.55 59.0546 38.7833 57.5879 37.75C56.1546 36.7167 54.9879 35.3833 54.0879 33.75C53.1879 32.1167 52.6879 30.1667 52.5879 27.9C52.5546 27.4333 52.5546 26.95 52.5879 26.45C52.6212 25.95 52.6546 25.4333 52.6879 24.9C52.6879 24.7667 52.6879 24.6333 52.6879 24.5C52.7212 24.3667 52.7546 24.2333 52.7879 24.1C53.1212 22.1 53.8046 20.2667 54.8379 18.6C55.9046 16.9333 57.2046 15.5167 58.7379 14.35C60.2712 13.1833 61.9046 12.3333 63.6379 11.8C65.4046 11.2333 67.1379 11.0333 68.8379 11.2C71.4712 11.4667 73.5046 12.1667 74.9379 13.3C76.4046 14.4333 77.3546 15.8333 77.7879 17.5C78.2546 19.1333 78.2712 20.9 77.8379 22.8C77.6046 23.7333 77.0712 24.6667 76.2379 25.6C75.4379 26.5 74.4379 27.3167 73.2379 28.05C72.0379 28.75 70.7546 29.3 69.3879 29.7C68.0546 30.0667 66.7546 30.2167 65.4879 30.15C64.8546 30.1167 64.5212 30.3167 64.4879 30.75C64.4546 31.15 64.6379 31.6 65.0379 32.1C65.4379 32.5667 65.9712 32.8833 66.6379 33.05C68.2046 33.3833 69.6712 33.4 71.0379 33.1C72.4379 32.7667 73.5046 32.3167 74.2379 31.75C74.8379 31.2833 75.4712 30.6667 76.1379 29.9C76.8046 29.1 77.3546 28.2833 77.7879 27.45ZM66.8379 22.4C67.6046 22.3333 68.2712 22.1 68.8379 21.7C69.4379 21.2667 69.7379 20.8167 69.7379 20.35C69.7712 19.6833 69.6046 19.15 69.2379 18.75C68.9046 18.3167 68.3212 18.1167 67.4879 18.15C66.5546 18.1833 65.6546 18.3167 64.7879 18.55C63.9212 18.7833 63.4046 19.2667 63.2379 20C63.1379 20.5 63.2879 20.9333 63.6879 21.3C64.0879 21.6667 64.5879 21.95 65.1879 22.15C65.7879 22.3167 66.3379 22.4 66.8379 22.4ZM96.6438 10.95C99.1104 10.95 101.21 11.3 102.944 12C104.71 12.7 106.06 13.5667 106.994 14.6C107.927 15.6333 108.377 16.65 108.344 17.65C108.344 18.1833 108.11 18.7833 107.644 19.45C107.177 20.1167 106.56 20.6833 105.794 21.15C105.06 21.5833 104.244 21.75 103.344 21.65C103.577 21.05 103.427 20.4833 102.894 19.95C102.36 19.4167 101.594 18.9833 100.594 18.65C99.5938 18.2833 98.5104 18.0833 97.3438 18.05C96.0104 17.9833 95.1104 18.1333 94.6438 18.5C94.1771 18.8333 93.9104 19.2 93.8438 19.6C93.7438 20.0333 93.9438 20.4167 94.4437 20.75C94.9438 21.05 95.5938 21.3333 96.3938 21.6C97.2271 21.8333 98.0938 22.05 98.9938 22.25C99.9271 22.4167 100.777 22.5667 101.544 22.7C102.344 22.8333 102.96 22.9667 103.394 23.1C105.394 23.7 106.86 24.4833 107.794 25.45C108.727 26.3833 109.327 27.3833 109.594 28.45C109.894 29.5167 110.01 30.5667 109.944 31.6C109.877 33.2667 109.444 34.6667 108.644 35.8C107.877 36.9 106.91 37.7833 105.744 38.45C104.61 39.1167 103.41 39.6167 102.144 39.95C100.91 40.25 99.7438 40.45 98.6438 40.55C97.5771 40.65 96.7604 40.7 96.1938 40.7C94.4604 40.6667 92.8271 40.4833 91.2938 40.15C89.7938 39.85 88.4938 39.45 87.3938 38.95C86.3271 38.45 85.5604 37.9167 85.0938 37.35C84.7604 36.95 84.4438 36.3833 84.1438 35.65C83.8438 34.9167 83.6604 34.1333 83.5938 33.3C83.5604 32.4333 83.7438 31.6167 84.1438 30.85C84.5438 30.05 85.2771 29.4 86.3438 28.9C86.5438 29.5667 87.0771 30.1667 87.9438 30.7C88.8438 31.2333 89.9104 31.6667 91.1438 32C92.4104 32.3333 93.6604 32.5667 94.8938 32.7C96.0938 32.8 97.2271 32.7833 98.2938 32.65C99.3604 32.5167 99.9438 32.1333 100.044 31.5C100.11 31.1667 99.9438 30.8333 99.5438 30.5C99.1438 30.1667 98.4104 29.8833 97.3438 29.65C96.2104 29.3833 95.2104 29.1833 94.3438 29.05C93.5104 28.8833 92.6771 28.7 91.8438 28.5C90.2771 28.1 88.9104 27.4667 87.7438 26.6C86.5771 25.7333 85.6938 24.7 85.0938 23.5C84.5271 22.2667 84.3271 20.9667 84.4938 19.6C84.7604 17.6333 85.4771 16.0167 86.6438 14.75C87.8438 13.4833 89.3271 12.5333 91.0938 11.9C92.8604 11.2667 94.7104 10.95 96.6438 10.95ZM141.015 33.65C141.048 34.25 141.148 34.8833 141.315 35.55C141.515 36.1833 141.982 36.65 142.715 36.95C142.282 37.5167 141.515 38.15 140.415 38.85C139.315 39.5167 138.132 39.95 136.865 40.15C135.698 40.3167 134.715 40.1833 133.915 39.75C133.148 39.2833 132.565 38.6167 132.165 37.75C131.798 36.8833 131.598 35.95 131.565 34.95C131.565 34.6833 131.582 34.1333 131.615 33.3C131.648 32.4333 131.665 31.45 131.665 30.35C131.665 29.25 131.648 28.2 131.615 27.2C131.615 26.2 131.565 25.4167 131.465 24.85C131.265 23.75 130.865 23.1333 130.265 23C129.698 22.8333 129.048 22.9667 128.315 23.4C127.148 24.0667 126.182 25.25 125.415 26.95C124.682 28.6167 124.298 30.75 124.265 33.35C124.232 34.3833 124.365 35.1333 124.665 35.6C124.965 36.0333 125.115 36.25 125.115 36.25C125.115 36.25 124.948 36.5333 124.615 37.1C124.282 37.6667 123.682 38.2833 122.815 38.95C121.948 39.5833 120.682 40.0333 119.015 40.3C118.082 40.4333 117.315 40.2667 116.715 39.8C116.115 39.3 115.682 38.6 115.415 37.7C115.148 36.8 114.998 35.85 114.965 34.85L114.815 5.8C114.782 4.43333 114.632 3.23333 114.365 2.2C114.098 1.13333 113.965 0.599998 113.965 0.599998C114.798 0.499999 115.765 0.466666 116.865 0.499999C117.998 0.533332 119.098 0.699998 120.165 0.999998C121.265 1.26667 122.198 1.73333 122.965 2.4C123.732 3.06666 124.182 3.96666 124.315 5.1C124.348 5.33333 124.382 5.78333 124.415 6.45C124.482 7.08333 124.515 7.73333 124.515 8.4C124.482 9.33333 124.615 10.1167 124.915 10.75C125.215 11.3833 125.615 11.8667 126.115 12.2C126.682 12.5333 127.398 12.65 128.265 12.55C129.132 12.4167 129.898 12.2333 130.565 12C131.232 11.7333 131.782 11.5333 132.215 11.4C132.682 11.2667 133.165 11.1667 133.665 11.1C134.232 11.0333 134.898 11.0667 135.665 11.2C136.432 11.3 137.182 11.55 137.915 11.95C138.682 12.35 139.332 12.9167 139.865 13.65C140.432 14.3833 140.782 15.3167 140.915 16.45C141.148 18.3833 141.198 20.75 141.065 23.55C140.965 26.3167 140.948 29.6833 141.015 33.65ZM195.448 31.55C196.915 32.9167 198.181 33.8 199.248 34.2C199.148 34.6 198.931 35.1333 198.598 35.8C198.298 36.4667 197.898 37.1333 197.398 37.8C196.931 38.4667 196.381 39.0333 195.748 39.5C195.115 39.9667 194.415 40.2167 193.648 40.25C192.715 40.2833 191.865 40.1833 191.098 39.95C190.365 39.6833 189.581 39.25 188.748 38.65C188.115 38.15 187.365 37.5167 186.498 36.75C185.665 35.95 184.848 35.1333 184.048 34.3C183.248 33.4667 182.615 32.7667 182.148 32.2C181.481 31.3333 180.765 30.6 179.998 30C179.231 29.4 178.381 29.1667 177.448 29.3C176.915 29.3333 176.581 29.4833 176.448 29.75C176.348 29.9833 176.248 30.4667 176.148 31.2C176.081 31.7 176.065 32.3 176.098 33C176.131 33.6667 176.181 34.3 176.248 34.9C176.348 35.5 176.398 35.9333 176.398 36.2C176.398 36.8 176.515 37.2667 176.748 37.6C176.981 37.9 177.215 38.1833 177.448 38.45C176.881 38.8833 175.998 39.35 174.798 39.85C173.598 40.35 172.265 40.6 170.798 40.6C169.831 40.6 169.065 40.2167 168.498 39.45C167.965 38.6833 167.581 37.75 167.348 36.65C167.115 35.55 166.981 34.4833 166.948 33.45C166.948 33.15 166.931 32.3333 166.898 31C166.898 29.6667 166.881 28.0167 166.848 26.05C166.848 24.05 166.848 21.9167 166.848 19.65C166.848 17.35 166.831 15.0833 166.798 12.85C166.798 10.5833 166.781 8.53333 166.748 6.7C166.748 4.83333 166.748 3.35 166.748 2.25C166.748 1.11666 166.748 0.549998 166.748 0.549998C167.115 0.483332 167.748 0.466666 168.648 0.499999C169.581 0.533332 170.548 0.683332 171.548 0.949999C172.681 1.21666 173.715 1.66666 174.648 2.3C175.615 2.93333 176.165 3.85 176.298 5.05C176.365 5.81666 176.398 6.45 176.398 6.95C176.431 7.45 176.448 7.96666 176.448 8.5C176.448 10.2667 176.881 11.3833 177.748 11.85C178.715 12.35 180.031 12.0167 181.698 10.85C181.965 10.65 182.431 10.2667 183.098 9.7C183.765 9.1 184.531 8.4 185.398 7.6C186.265 6.8 187.165 5.96666 188.098 5.1C189.031 4.23333 189.881 3.43333 190.648 2.7C191.448 1.93333 192.098 1.31666 192.598 0.849997C193.098 0.383331 193.348 0.149997 193.348 0.149997C193.648 0.383332 194.065 0.933332 194.598 1.8C195.165 2.66666 195.665 3.63333 196.098 4.7C196.531 5.76667 196.798 6.86667 196.898 8C197.031 9.1 196.815 10.0167 196.248 10.75C196.015 11.05 195.631 11.45 195.098 11.95C194.598 12.45 194.031 12.9833 193.398 13.55C192.798 14.0833 192.215 14.6 191.648 15.1C191.081 15.5667 190.648 15.9333 190.348 16.2C189.715 16.7333 189.181 17.4 188.748 18.2C188.348 18.9667 188.098 19.7667 187.998 20.6C187.898 21.4333 187.931 22.2667 188.098 23.1C188.265 23.9333 188.631 24.7 189.198 25.4C189.598 25.8667 190.198 26.5 190.998 27.3C191.798 28.0667 192.615 28.85 193.448 29.65C194.281 30.4167 194.948 31.05 195.448 31.55ZM228.471 27.45C229.305 28.0167 229.838 28.8333 230.071 29.9C230.338 30.9333 230.305 32.0667 229.971 33.3C229.671 34.5333 229.055 35.7167 228.121 36.85C227.188 37.95 225.921 38.8667 224.321 39.6C222.755 40.3333 220.855 40.7167 218.621 40.75C216.755 40.7833 214.921 40.55 213.121 40.05C211.355 39.55 209.738 38.7833 208.271 37.75C206.838 36.7167 205.671 35.3833 204.771 33.75C203.871 32.1167 203.371 30.1667 203.271 27.9C203.238 27.4333 203.238 26.95 203.271 26.45C203.305 25.95 203.338 25.4333 203.371 24.9C203.371 24.7667 203.371 24.6333 203.371 24.5C203.405 24.3667 203.438 24.2333 203.471 24.1C203.805 22.1 204.488 20.2667 205.521 18.6C206.588 16.9333 207.888 15.5167 209.421 14.35C210.955 13.1833 212.588 12.3333 214.321 11.8C216.088 11.2333 217.821 11.0333 219.521 11.2C222.155 11.4667 224.188 12.1667 225.621 13.3C227.088 14.4333 228.038 15.8333 228.471 17.5C228.938 19.1333 228.955 20.9 228.521 22.8C228.288 23.7333 227.755 24.6667 226.921 25.6C226.121 26.5 225.121 27.3167 223.921 28.05C222.721 28.75 221.438 29.3 220.071 29.7C218.738 30.0667 217.438 30.2167 216.171 30.15C215.538 30.1167 215.205 30.3167 215.171 30.75C215.138 31.15 215.321 31.6 215.721 32.1C216.121 32.5667 216.655 32.8833 217.321 33.05C218.888 33.3833 220.355 33.4 221.721 33.1C223.121 32.7667 224.188 32.3167 224.921 31.75C225.521 31.2833 226.155 30.6667 226.821 29.9C227.488 29.1 228.038 28.2833 228.471 27.45ZM217.521 22.4C218.288 22.3333 218.955 22.1 219.521 21.7C220.121 21.2667 220.421 20.8167 220.421 20.35C220.455 19.6833 220.288 19.15 219.921 18.75C219.588 18.3167 219.005 18.1167 218.171 18.15C217.238 18.1833 216.338 18.3167 215.471 18.55C214.605 18.7833 214.088 19.2667 213.921 20C213.821 20.5 213.971 20.9333 214.371 21.3C214.771 21.6667 215.271 21.95 215.871 22.15C216.471 22.3167 217.021 22.4 217.521 22.4ZM259.477 27.45C260.311 28.0167 260.844 28.8333 261.077 29.9C261.344 30.9333 261.311 32.0667 260.977 33.3C260.677 34.5333 260.061 35.7167 259.127 36.85C258.194 37.95 256.927 38.8667 255.327 39.6C253.761 40.3333 251.861 40.7167 249.627 40.75C247.761 40.7833 245.927 40.55 244.127 40.05C242.361 39.55 240.744 38.7833 239.277 37.75C237.844 36.7167 236.677 35.3833 235.777 33.75C234.877 32.1167 234.377 30.1667 234.277 27.9C234.244 27.4333 234.244 26.95 234.277 26.45C234.311 25.95 234.344 25.4333 234.377 24.9C234.377 24.7667 234.377 24.6333 234.377 24.5C234.411 24.3667 234.444 24.2333 234.477 24.1C234.811 22.1 235.494 20.2667 236.527 18.6C237.594 16.9333 238.894 15.5167 240.427 14.35C241.961 13.1833 243.594 12.3333 245.327 11.8C247.094 11.2333 248.827 11.0333 250.527 11.2C253.161 11.4667 255.194 12.1667 256.627 13.3C258.094 14.4333 259.044 15.8333 259.477 17.5C259.944 19.1333 259.961 20.9 259.527 22.8C259.294 23.7333 258.761 24.6667 257.927 25.6C257.127 26.5 256.127 27.3167 254.927 28.05C253.727 28.75 252.444 29.3 251.077 29.7C249.744 30.0667 248.444 30.2167 247.177 30.15C246.544 30.1167 246.211 30.3167 246.177 30.75C246.144 31.15 246.327 31.6 246.727 32.1C247.127 32.5667 247.661 32.8833 248.327 33.05C249.894 33.3833 251.361 33.4 252.727 33.1C254.127 32.7667 255.194 32.3167 255.927 31.75C256.527 31.2833 257.161 30.6667 257.827 29.9C258.494 29.1 259.044 28.2833 259.477 27.45ZM248.527 22.4C249.294 22.3333 249.961 22.1 250.527 21.7C251.127 21.2667 251.427 20.8167 251.427 20.35C251.461 19.6833 251.294 19.15 250.927 18.75C250.594 18.3167 250.011 18.1167 249.177 18.15C248.244 18.1833 247.344 18.3167 246.477 18.55C245.611 18.7833 245.094 19.2667 244.927 20C244.827 20.5 244.977 20.9333 245.377 21.3C245.777 21.6667 246.277 21.95 246.877 22.15C247.477 22.3167 248.027 22.4 248.527 22.4ZM278.883 11.1C281.85 10.8667 284.35 11.3667 286.383 12.6C288.417 13.8 289.967 15.4833 291.033 17.65C292.1 19.7833 292.65 22.15 292.683 24.75C292.75 27.15 292.4 29.2833 291.633 31.15C290.867 32.9833 289.817 34.55 288.483 35.85C287.15 37.1167 285.65 38.0833 283.983 38.75C282.35 39.4167 280.667 39.75 278.933 39.75C278.567 39.75 278.083 39.8 277.483 39.9C276.917 39.9667 276.45 40.15 276.083 40.45C275.85 40.6833 275.683 40.9333 275.583 41.2C275.517 41.4667 275.5 41.7833 275.533 42.15C275.6 42.75 275.733 43.1667 275.933 43.4C276.167 43.6667 276.367 43.95 276.533 44.25C276.167 44.65 275.65 45.0833 274.983 45.55C274.317 46.0167 273.5 46.3833 272.533 46.65C271.6 46.9167 270.483 46.95 269.183 46.75C268.383 46.6167 267.683 46.1 267.083 45.2C266.483 44.3 266.167 43.0833 266.133 41.55L265.983 18.3C265.983 16.4333 265.867 14.9167 265.633 13.75C265.4 12.55 265.283 11.95 265.283 11.95C265.717 11.8167 266.4 11.7 267.333 11.6C268.3 11.5 269.3 11.5667 270.333 11.8C270.733 11.9 271.233 12.0167 271.833 12.15C272.467 12.25 273.15 12.25 273.883 12.15C274.85 12.05 275.817 11.8667 276.783 11.6C277.75 11.3 278.45 11.1333 278.883 11.1ZM279.833 31.9C280.9 31.9 281.9 31.35 282.833 30.25C283.767 29.1167 284.233 27.5333 284.233 25.5C284.233 24.1333 284 22.9833 283.533 22.05C283.1 21.0833 282.55 20.3667 281.883 19.9C281.217 19.4 280.567 19.15 279.933 19.15C279.3 19.15 278.65 19.2 277.983 19.3C277.35 19.4 276.783 19.7833 276.283 20.45C275.817 21.1167 275.517 22.3 275.383 24C275.217 26.2 275.35 27.8667 275.783 29C276.25 30.1333 276.867 30.9 277.633 31.3C278.4 31.7 279.133 31.9 279.833 31.9ZM302.28 10.25C301.146 10.2833 300.13 9.96666 299.23 9.3C298.363 8.63333 297.696 7.81667 297.23 6.85C296.796 5.85 296.63 4.9 296.73 4C296.896 2.63333 297.513 1.66666 298.58 1.1C299.646 0.533332 300.763 0.233332 301.93 0.199997C303.596 0.133331 304.896 0.566665 305.83 1.5C306.763 2.43333 307.23 3.5 307.23 4.7C307.23 5.5 307.046 6.31667 306.68 7.15C306.346 7.98333 305.813 8.7 305.08 9.3C304.346 9.86667 303.413 10.1833 302.28 10.25ZM307.58 34.95C307.613 35.55 307.796 36.0667 308.13 36.5C308.496 36.9 308.93 37.2833 309.43 37.65C309.196 37.95 308.896 38.2667 308.53 38.6C308.163 38.9333 307.613 39.25 306.88 39.55C306.18 39.8167 305.163 40.0333 303.83 40.2C303.396 40.2333 302.846 40.1833 302.18 40.05C301.513 39.95 300.846 39.6333 300.18 39.1C299.546 38.5333 299.03 37.65 298.63 36.45C298.23 35.2167 298.063 33.5333 298.13 31.4C298.163 31.0333 298.163 30.3167 298.13 29.25C298.13 28.1833 298.113 26.9167 298.08 25.45C298.08 23.9833 298.063 22.4667 298.03 20.9C298.03 19.3333 298.013 17.8833 297.98 16.55C297.98 15.1833 297.963 14.0833 297.93 13.25C297.93 12.3833 297.93 11.95 297.93 11.95C298.23 11.9167 298.73 11.8833 299.43 11.85C300.163 11.7833 300.963 11.7833 301.83 11.85C302.696 11.9167 303.53 12.0833 304.33 12.35C305.163 12.5833 305.863 12.9667 306.43 13.5C307.03 14.0333 307.38 14.75 307.48 15.65C307.646 16.9167 307.713 18.6167 307.68 20.75C307.646 22.85 307.596 25.15 307.53 27.65C307.463 30.1167 307.48 32.55 307.58 34.95ZM338.628 27.45C339.461 28.0167 339.994 28.8333 340.228 29.9C340.494 30.9333 340.461 32.0667 340.128 33.3C339.828 34.5333 339.211 35.7167 338.278 36.85C337.344 37.95 336.078 38.8667 334.478 39.6C332.911 40.3333 331.011 40.7167 328.778 40.75C326.911 40.7833 325.078 40.55 323.278 40.05C321.511 39.55 319.894 38.7833 318.428 37.75C316.994 36.7167 315.828 35.3833 314.928 33.75C314.028 32.1167 313.528 30.1667 313.428 27.9C313.394 27.4333 313.394 26.95 313.428 26.45C313.461 25.95 313.494 25.4333 313.528 24.9C313.528 24.7667 313.528 24.6333 313.528 24.5C313.561 24.3667 313.594 24.2333 313.628 24.1C313.961 22.1 314.644 20.2667 315.678 18.6C316.744 16.9333 318.044 15.5167 319.578 14.35C321.111 13.1833 322.744 12.3333 324.478 11.8C326.244 11.2333 327.978 11.0333 329.678 11.2C332.311 11.4667 334.344 12.1667 335.778 13.3C337.244 14.4333 338.194 15.8333 338.628 17.5C339.094 19.1333 339.111 20.9 338.678 22.8C338.444 23.7333 337.911 24.6667 337.078 25.6C336.278 26.5 335.278 27.3167 334.078 28.05C332.878 28.75 331.594 29.3 330.228 29.7C328.894 30.0667 327.594 30.2167 326.328 30.15C325.694 30.1167 325.361 30.3167 325.328 30.75C325.294 31.15 325.478 31.6 325.878 32.1C326.278 32.5667 326.811 32.8833 327.478 33.05C329.044 33.3833 330.511 33.4 331.878 33.1C333.278 32.7667 334.344 32.3167 335.078 31.75C335.678 31.2833 336.311 30.6667 336.978 29.9C337.644 29.1 338.194 28.2833 338.628 27.45ZM327.678 22.4C328.444 22.3333 329.111 22.1 329.678 21.7C330.278 21.2667 330.578 20.8167 330.578 20.35C330.611 19.6833 330.444 19.15 330.078 18.75C329.744 18.3167 329.161 18.1167 328.328 18.15C327.394 18.1833 326.494 18.3167 325.628 18.55C324.761 18.7833 324.244 19.2667 324.078 20C323.978 20.5 324.128 20.9333 324.528 21.3C324.928 21.6667 325.428 21.95 326.028 22.15C326.628 22.3167 327.178 22.4 327.678 22.4Z" fill="#05796B"/>
</svg>
