<svg width="28" height="33" viewBox="0 0 28 33" fill="none" xmlns="http://www.w3.org/2000/svg">
<rect x="1.5" y="3.80908" width="25" height="27.6909" rx="1.5" fill="white" stroke="#05796B" stroke-width="3" stroke-linejoin="round"/>
<path d="M5 15.5C5 14.6716 5.67157 14 6.5 14H8.5C9.32843 14 10 14.6716 10 15.5C10 16.3284 9.32843 17 8.5 17H6.5C5.67157 17 5 16.3284 5 15.5Z" fill="#05796B"/>
<path d="M5 20.5C5 19.6716 5.67157 19 6.5 19H8.5C9.32843 19 10 19.6716 10 20.5C10 21.3284 9.32843 22 8.5 22H6.5C5.67157 22 5 21.3284 5 20.5Z" fill="#05796B"/>
<path d="M11 15.5C11 14.6716 11.6716 14 12.5 14H15.5C16.3284 14 17 14.6716 17 15.5C17 16.3284 16.3284 17 15.5 17H12.5C11.6716 17 11 16.3284 11 15.5Z" fill="#05796B"/>
<path d="M11 20.5C11 19.6716 11.6716 19 12.5 19H15.5C16.3284 19 17 19.6716 17 20.5C17 21.3284 16.3284 22 15.5 22H12.5C11.6716 22 11 21.3284 11 20.5Z" fill="#05796B"/>
<path d="M18 15.5C18 14.6716 18.6716 14 19.5 14H21.5C22.3284 14 23 14.6716 23 15.5C23 16.3284 22.3284 17 21.5 17H19.5C18.6716 17 18 16.3284 18 15.5Z" fill="#05796B"/>
<rect x="1.5" y="4.2901" width="25" height="6.30028" rx="1.5" fill="white" stroke="#05796B" stroke-width="3" stroke-linejoin="round"/>
<rect x="20.3638" width="2.54545" height="7.44023" rx="1.27273" fill="#05796B"/>
<path d="M5.09106 1.27273C5.09106 0.569819 5.66088 0 6.36379 0C7.0667 0 7.63652 0.56982 7.63652 1.27273V6.1675C7.63652 6.87041 7.0667 7.44023 6.36379 7.44023C5.66088 7.44023 5.09106 6.87041 5.09106 6.1675V1.27273Z" fill="#05796B"/>
</svg>
