<svg width="165" height="43" viewBox="0 0 165 43" fill="none" xmlns="http://www.w3.org/2000/svg">
<path d="M28.2 32.1C28.6333 32.4667 28.9167 33.2 29.05 34.3C29.2167 35.3667 29.1667 36.4833 28.9 37.65C28.7 38.6167 28.3333 39.55 27.8 40.45C27.2667 41.3167 26.5667 41.8333 25.7 42C25.3667 42.0667 24.6 42.1 23.4 42.1C22.2 42.1333 20.7833 42.1333 19.15 42.1C17.55 42.1 15.9167 42.0833 14.25 42.05C12.6167 42.05 11.15 42.05 9.85 42.05C8.58333 42.0833 7.68333 42.1333 7.15 42.2C5.78333 42.4333 4.38333 42.5167 2.95 42.45C1.55 42.3833 0.566667 42.1833 1.41561e-07 41.85C0.233333 41.3833 0.433333 40.6833 0.6 39.75C0.766667 38.7833 0.9 37.7333 1 36.6C1.1 35.4667 1.13333 34.3833 1.1 33.35L0.9 2.55C1.26667 2.48333 1.9 2.46667 2.8 2.5C3.73333 2.53333 4.71667 2.68333 5.75 2.95C6.88333 3.21666 7.9 3.71666 8.8 4.45C9.7 5.18333 10.25 6.11666 10.45 7.25C10.5167 7.61667 10.5667 8.35 10.6 9.45C10.6333 10.5167 10.65 11.7833 10.65 13.25C10.6833 14.7167 10.6833 16.2167 10.65 17.75C10.65 19.2833 10.65 20.7167 10.65 22.05C10.65 23.3833 10.6333 24.4667 10.6 25.3C10.6 26.1333 10.6 26.55 10.6 26.55C10.5667 27.8167 10.7 28.9667 11 30C11.3 31 11.7333 31.7833 12.3 32.35C12.7333 32.7833 13.2667 33.0833 13.9 33.25C14.5333 33.4167 15.3167 33.5333 16.25 33.6C16.65 33.6333 17.2667 33.6333 18.1 33.6C18.9667 33.5667 19.9167 33.5167 20.95 33.45C21.9833 33.35 23 33.2333 24 33.1C25.0333 32.9667 25.9333 32.8167 26.7 32.65C27.4667 32.4833 27.9667 32.3 28.2 32.1ZM71.7543 20.55C72.0876 23.65 71.9376 26.4 71.3043 28.8C70.7043 31.2 69.7543 33.2833 68.4543 35.05C67.1876 36.7833 65.6876 38.2167 63.9543 39.35C62.221 40.45 60.371 41.2833 58.4043 41.85C56.471 42.3833 54.5543 42.65 52.6543 42.65C50.7543 42.65 48.821 42.4 46.8543 41.9C44.8876 41.4 43.021 40.6167 41.2543 39.55C39.521 38.4833 37.9876 37.1 36.6543 35.4C35.3543 33.7 34.3876 31.6833 33.7543 29.35C33.121 26.9833 32.971 24.25 33.3043 21.15C33.571 18.4833 34.2376 16 35.3043 13.7C36.371 11.3667 37.7543 9.35 39.4543 7.65C41.1543 5.91667 43.1043 4.58333 45.3043 3.65C47.5043 2.68333 49.8543 2.23333 52.3543 2.3C52.521 2.3 52.771 2.18333 53.1043 1.95C53.4376 1.68333 53.8876 1.43333 54.4543 1.2C55.021 0.966665 55.7043 0.883332 56.5043 0.949998C58.0043 1.08333 59.5876 1.7 61.2543 2.8C62.921 3.9 64.5043 5.36666 66.0043 7.2C67.5043 9 68.771 11.05 69.8043 13.35C70.8376 15.65 71.4876 18.05 71.7543 20.55ZM52.8043 33.4C53.971 33.3667 55.071 33.2 56.1043 32.9C57.171 32.6 58.121 32.05 58.9543 31.25C59.7876 30.45 60.4543 29.3167 60.9543 27.85C61.4876 26.3833 61.771 24.5 61.8043 22.2C61.8376 20.6 61.4876 19.05 60.7543 17.55C60.021 16.05 59.0043 14.7833 57.7043 13.75C56.4043 12.6833 54.921 12.0667 53.2543 11.9C51.4543 11.7 49.921 11.8833 48.6543 12.45C47.3876 12.9833 46.3376 13.7833 45.5043 14.85C44.7043 15.8833 44.0876 17.05 43.6543 18.35C43.221 19.65 42.9543 20.9667 42.8543 22.3C42.6543 24.6 42.871 26.4833 43.5043 27.95C44.1376 29.4167 44.9876 30.55 46.0543 31.35C47.121 32.15 48.2543 32.7 49.4543 33C50.6876 33.3 51.8043 33.4333 52.8043 33.4ZM110.678 19.25C111.044 19.6167 111.311 20.1667 111.478 20.9C111.678 21.6 111.711 22.3833 111.578 23.25C111.478 23.9833 111.228 24.7333 110.828 25.5C110.428 26.2667 109.828 26.9333 109.028 27.5C108.394 27.9333 107.928 28.65 107.628 29.65C107.328 30.6167 107.128 31.6 107.028 32.6C106.894 33.7333 106.594 34.9 106.128 36.1C105.694 37.3 105.011 38.3667 104.078 39.3C103.344 40.1667 102.278 40.9667 100.878 41.7C99.5111 42.4 97.6444 42.7333 95.2777 42.7C93.9444 42.6667 92.3777 42.4333 90.5777 42C88.8111 41.5667 87.0111 40.8667 85.1777 39.9C83.3777 38.9 81.7277 37.5667 80.2277 35.9C78.7277 34.2333 77.5777 32.1667 76.7777 29.7C75.9777 27.2333 75.7444 24.3 76.0777 20.9C76.3777 17.6667 77.1777 14.8667 78.4777 12.5C79.8111 10.1333 81.4611 8.18333 83.4277 6.65C85.3944 5.11667 87.5111 3.96667 89.7777 3.2C92.0444 2.4 94.2944 1.98333 96.5277 1.95C98.4944 1.88333 100.211 2.18333 101.678 2.85C103.144 3.51667 104.311 4.38333 105.178 5.45C106.078 6.48333 106.678 7.6 106.978 8.8C107.311 9.96667 107.311 11.0333 106.978 12C106.711 12.8333 106.328 13.5167 105.828 14.05C105.361 14.5833 104.844 14.95 104.278 15.15C103.578 15.4167 102.861 15.4667 102.128 15.3C101.394 15.1 100.761 14.6833 100.228 14.05C100.794 13.6167 100.961 13.15 100.728 12.65C100.528 12.1167 100.011 11.6833 99.1777 11.35C98.3444 10.9833 97.2777 10.85 95.9777 10.95C94.9777 11.0167 93.9111 11.3 92.7777 11.8C91.6777 12.3 90.6277 13 89.6277 13.9C88.6611 14.8 87.8611 15.9 87.2277 17.2C86.5944 18.5 86.2444 19.9833 86.1777 21.65C86.0777 23.95 86.2777 25.8167 86.7777 27.25C87.3111 28.6833 88.0111 29.7667 88.8777 30.5C89.7444 31.2333 90.6777 31.7333 91.6777 32C92.6777 32.2667 93.6444 32.4 94.5777 32.4C95.3777 32.4 96.0277 32.15 96.5277 31.65C97.0611 31.15 97.2777 30.55 97.1777 29.85C97.0777 29.15 96.4777 28.4833 95.3777 27.85C94.3444 27.2833 93.6777 26.7333 93.3777 26.2C93.0777 25.6667 92.8277 25.1333 92.6277 24.6C92.2944 23.7333 92.0111 22.8 91.7777 21.8C91.5444 20.8 91.4444 19.95 91.4777 19.25C91.7444 19.35 92.4277 19.5167 93.5277 19.75C94.6277 19.95 95.8944 20.1333 97.3277 20.3C98.7944 20.4667 100.178 20.5667 101.478 20.6C102.844 20.6 104.161 20.5667 105.428 20.5C106.694 20.4 107.794 20.25 108.728 20.05C109.694 19.85 110.344 19.5833 110.678 19.25ZM120.025 42.45C118.592 42.1833 117.575 41.2167 116.975 39.55C116.408 37.8833 116.125 35.8167 116.125 33.35C116.125 33.05 116.108 32.3 116.075 31.1C116.075 29.9 116.058 28.4167 116.025 26.65C116.025 24.85 116.008 22.9167 115.975 20.85C115.975 18.7833 115.958 16.7167 115.925 14.65C115.892 12.5833 115.858 10.6833 115.825 8.95C115.792 7.18333 115.758 5.73333 115.725 4.6C115.692 3.46666 115.658 2.78333 115.625 2.55C116.125 2.45 116.892 2.43333 117.925 2.5C118.992 2.53333 120.092 2.7 121.225 3C122.392 3.26667 123.408 3.73333 124.275 4.4C125.142 5.03333 125.642 5.91666 125.775 7.05C125.842 7.58333 125.892 8.5 125.925 9.8C125.958 11.0667 125.975 12.5833 125.975 14.35C126.008 16.0833 126.025 17.9333 126.025 19.9C126.025 21.8667 126.025 23.8167 126.025 25.75C126.025 27.65 126.025 29.4167 126.025 31.05C126.025 32.65 126.025 34 126.025 35.1C126.058 36.1667 126.092 36.8167 126.125 37.05C126.192 37.75 126.325 38.2667 126.525 38.6C126.725 38.9 126.942 39.2833 127.175 39.75C126.342 40.65 125.308 41.3833 124.075 41.95C122.842 42.5167 121.492 42.6833 120.025 42.45ZM164.052 7.05C164.119 7.61666 164.152 8.58333 164.152 9.95C164.186 11.2833 164.202 12.8833 164.202 14.75C164.202 16.6167 164.202 18.5833 164.202 20.65C164.202 22.7167 164.186 24.7667 164.152 26.8C164.152 28.8333 164.136 30.6833 164.102 32.35C164.102 34.0167 164.102 35.3833 164.102 36.45C164.102 37.4833 164.119 38.0667 164.152 38.2C164.219 38.4667 164.169 38.9 164.002 39.5C163.836 40.0667 163.569 40.6167 163.202 41.15C162.836 41.65 162.369 41.95 161.802 42.05C161.269 42.1833 160.519 42.1833 159.552 42.05C158.619 41.95 157.669 41.7 156.702 41.3C155.769 40.8667 155.019 40.25 154.452 39.45C154.119 38.9833 153.602 38.3167 152.902 37.45C152.236 36.55 151.486 35.5833 150.652 34.55C149.852 33.4833 149.052 32.4667 148.252 31.5C147.486 30.5 146.836 29.65 146.302 28.95C145.769 28.2167 145.436 27.7667 145.302 27.6C145.002 27.1333 144.502 26.6667 143.802 26.2C143.136 25.7 142.602 25.5167 142.202 25.65C141.802 25.7833 141.502 26.2 141.302 26.9C141.102 27.5667 140.969 28.2833 140.902 29.05C140.836 29.55 140.802 30.3167 140.802 31.35C140.802 32.35 140.802 33.3833 140.802 34.45C140.836 35.5167 140.836 36.3833 140.802 37.05C140.769 38.2167 141.136 39.3333 141.902 40.4C141.636 40.5667 141.102 40.8333 140.302 41.2C139.502 41.5333 138.652 41.8333 137.752 42.1C136.852 42.3667 136.086 42.4833 135.452 42.45C134.386 42.3833 133.436 41.8333 132.602 40.8C131.802 39.7667 131.386 38.4833 131.352 36.95C131.352 36.65 131.336 35.8167 131.302 34.45C131.302 33.05 131.286 31.3167 131.252 29.25C131.252 27.1833 131.252 24.95 131.252 22.55C131.252 20.15 131.236 17.7833 131.202 15.45C131.202 13.0833 131.186 10.9333 131.152 9C131.152 7.03333 131.152 5.46667 131.152 4.3C131.152 3.13333 131.152 2.55 131.152 2.55C133.186 2.48333 134.902 2.63333 136.302 3C137.702 3.36666 138.869 4.03333 139.802 5C140.202 5.36667 140.786 6.01667 141.552 6.95C142.319 7.88333 143.152 8.95 144.052 10.15C144.986 11.3167 145.886 12.4833 146.752 13.65C147.652 14.8167 148.436 15.85 149.102 16.75C149.769 17.6167 150.202 18.1833 150.402 18.45C150.936 19.1167 151.469 19.65 152.002 20.05C152.569 20.4167 153.036 20.5333 153.402 20.4C154.202 20.1333 154.602 19.0167 154.602 17.05L154.502 2.55C154.869 2.48333 155.502 2.46667 156.402 2.5C157.336 2.53333 158.319 2.68333 159.352 2.95C160.486 3.21666 161.519 3.66666 162.452 4.3C163.386 4.93333 163.919 5.85 164.052 7.05Z" fill="#05796B"/>
</svg>
